<svg xmlns="http://www.w3.org/2000/svg" viewBox="0 0 350 54.2140390875492" ><defs><linearGradient id="SvgjsLinearGradient"><stop stop-color="#7f00ff" offset="0"></stop><stop stop-color="#e100ff" offset="1"></stop></linearGradient></defs><g transform="matrix(1.9361534296249807,0,0,1.9361534296249807,-5.57553677113901,-23.233449706022498)" fill="url(#SvgjsLinearGradient)"><path d="M25.09 20.594 c0.73952 1.695 1.1092 3.4965 1.1092 5.4048 c0 1.9109 -0.36976 3.7124 -1.1093 5.4064 c-0.73952 1.695 -1.7422 3.1819 -3.0053 4.4588 c-1.2658 1.278 -2.7509 2.2859 -4.4588 3.0254 c-1.7081 0.7404 -3.5167 1.1102 -5.426 1.1102 l-9.3201 0 l4.64 -4.68 l4.6802 0 c1.2902 0 2.5009 -0.24215 3.6303 -0.7264 s2.118 -1.1565 2.966 -2.0175 c0.84704 -0.86016 1.5123 -1.8558 1.9965 -2.9852 c0.48424 -1.1303 0.7264 -2.3261 0.7264 -3.591 c0 -1.2631 -0.24215 -2.4607 -0.7264 -3.5901 s-1.1574 -2.125 -2.0175 -2.9852 c-0.861 -0.861 -1.8558 -1.5332 -2.9852 -2.0175 c-1.1294 -0.48516 -2.327 -0.7264 -3.5901 -0.7264 l-4.6802 0 l-4.64 -4.68 l9.3201 0 c1.9091 0 3.7116 0.37062 5.4056 1.1092 c1.695 0.7404 3.1801 1.7491 4.458 3.0262 c1.2771 1.278 2.2859 2.7641 3.0262 4.458 z M24.29 31.0564 c0.68708 -1.5752 1.0358 -3.2762 1.0358 -5.056 s-0.34879 -3.4817 -1.0358 -5.0568 c-0.69232 -1.5848 -1.6486 -2.9939 -2.8436 -4.1896 c-1.1958 -1.1941 -2.6049 -2.1504 -4.1896 -2.8427 c-1.5761 -0.68796 -3.278 -1.0368 -5.056 -1.0368 l-7.223 0 l2.9065 2.9319 l4.3165 0 c1.3794 0 2.7028 0.26836 3.9354 0.79724 c1.2247 0.52448 2.3209 1.2658 3.2579 2.202 c0.9362 0.9362 1.6766 2.0332 2.2028 3.2596 c0.52888 1.2343 0.79724 2.5577 0.79724 3.9345 s-0.26836 2.7002 -0.79724 3.9354 c-0.52536 1.2247 -1.2579 2.32 -2.1775 3.2544 c-0.92224 0.93708 -2.014 1.6801 -3.244 2.2072 c-1.2343 0.52888 -2.5717 0.79724 -3.9747 0.79724 l-4.3165 0 l-2.9065 2.9319 l7.223 0 c1.7798 0 3.4887 -0.34879 5.078 -1.0376 c1.5971 -0.69144 3.0053 -1.646 4.1856 -2.8384 c1.181 -1.1941 2.132 -2.6049 2.8261 -4.1932 z M30.27 39.61492 l4.6392 -4.2956 l14 0 l0 4.6802 l-18.639 0 l0 -0.38461 z M48.036 36.1944 l-12.783 0 l-3.167 2.9319 l15.95 0 l0 -2.9319 z M30.27 12 l18.64 0 l0 4.6802 l-14 0 z M48.036 15.806000000000001 l0 -2.9319 l-15.668 0 l2.9065 2.9319 l12.762 0 z M30.27 28.34 l0 -4.64 l18.639 0 l0 4.64 l-18.639 0 z M31.1441 24.573999999999998 l0 2.8917 l16.891 0 l0 -2.8917 l-16.891 0 z M58.2248 12 l11.411 22.769 l-2.6154 5.2308 l-14 -28 l5.2046 0 z M54.4336 12.873999999999999 l12.586 25.171 l1.6381 -3.2754 l-10.973 -21.896 l-3.2509 0 z M73.73089999999999 12 l14 0 l0 4.681 l-9.3201 0 l0 23.319 l-4.6802 0 l0 -28 z M86.856 15.806999999999999 l0 -2.9328 l-12.252 0 l0 26.252 l2.9319 0 l0 -23.319 l9.3201 0 z M96.79999999999998 12 l9.3404 18.681 l-5.2248 -0.00085936 l-4.1156 -8.23 l-4.1024 8.23 l-4.6932 9.32 l-5.2046 0 z M97.582 22.058 l3.8742 7.7468 l3.2702 0.00085936 l-7.926 -15.852 l-12.586 25.172 l3.2518 0 l4.4512 -8.8392 l4.0996 -8.2276 l0.78148 -1.5674 z M108.47999999999999 35.3612 l2.3191 4.638 l-5.2046 0 l-2.3191 -4.638 l5.2046 0 z M104.68999999999998 36.2355 l1.445 2.8899 l3.2501 0 l-1.445 -2.8899 l-3.2501 0 z M119.50999999999998 35.3204 l13.999 0 l0 4.6802 l-18.639 0 z M132.63599999999997 39.12624 l0 -2.9319 l-12.762 0 l-2.9065 2.9319 l15.668 0 z M119.50999999999998 12 l0 16.982 l-4.64 4.68 l0 -21.662 l4.64 0 z M118.63599999999998 28.622 l0 -15.749 l-2.8917 0 l0 18.665 z M137.57999999999998 39.61492 l4.6392 -4.2956 l14 0 l0 4.6802 l-18.639 0 l0 -0.38461 z M155.346 36.1944 l-12.783 0 l-3.167 2.9319 l15.95 0 l0 -2.9319 z M137.57999999999998 12 l18.64 0 l0 4.6802 l-14 0 z M155.346 15.806000000000001 l0 -2.9319 l-15.668 0 l2.9065 2.9319 l12.762 0 z M137.57999999999998 28.34 l0 -4.64 l18.639 0 l0 4.64 l-18.639 0 z M138.45409999999998 24.573999999999998 l0 2.8917 l16.891 0 l0 -2.8917 l-16.891 0 z M181.23 26.082 c1.6137 1.5866 2.4196 3.5098 2.4205 5.7684 c0 2.2334 -0.80684 4.1556 -2.4205 5.77 c-1.5883 1.5875 -3.5106 2.3803 -5.77 2.3803 l0 -4.6802 c0.4834 0 0.94144 -0.087424 1.3715 -0.26312 c0.43008 -0.17394 0.80684 -0.41608 1.1294 -0.72556 c0.32344 -0.30945 0.57084 -0.68008 0.74652 -1.1102 c0.17394 -0.43008 0.26223 -0.88728 0.26223 -1.3715 c0 -0.9406 -0.34965 -1.7606 -1.049 -2.4608 c-0.67224 -0.69928 -1.4922 -1.049 -2.4608 -1.049 l-6.9792 0 c-2.2596 0 -4.1836 -0.79372 -5.7692 -2.3803 c-1.5883 -1.5866 -2.3812 -3.5228 -2.3812 -5.8096 c0 -2.2326 0.79372 -4.1416 2.3812 -5.7292 c1.5604 -1.6137 3.4835 -2.4214 5.7692 -2.4214 l0 4.681 c-0.4834 0 -0.94144 0.086524 -1.3715 0.26223 s-0.80684 0.42396 -1.1294 0.74652 c-0.32254 0.32254 -0.57168 0.70016 -0.74652 1.1302 s-0.26226 0.87416 -0.26226 1.3304 c0 0.96856 0.33566 1.8025 1.0088 2.5018 c0.67132 0.69928 1.5053 1.0481 2.5009 1.0481 l6.9792 0 c2.2596 0 4.1828 0.7946 5.7704 2.3812 z M180.612 37.0022 c1.4563 -1.4572 2.1634 -3.1426 2.1642 -5.1524 c0 -2.0341 -0.70628 -3.7169 -2.1591 -5.146 c-1.4354 -1.4354 -3.1207 -2.1303 -5.1564 -2.1303 l-6.9792 0 c-1.2378 0 -2.2911 -0.44232 -3.1312 -1.3164 c-0.83132 -0.86368 -1.2526 -1.9091 -1.2526 -3.1076 c0 -0.56908 0.10926 -1.1276 0.32606 -1.66 c0.21856 -0.53672 0.535 -1.0149 0.93888 -1.4188 c0.40296 -0.40388 0.88024 -0.7194 1.4178 -0.93796 c0.2666 -0.1084 0.5428 -0.19058 0.82692 -0.24476 l0 -2.9695 c-1.667 0.1757 -3.0691 0.87068 -4.2668 2.1093 c-1.4406 1.4406 -2.1356 3.112 -2.1356 5.1216 c0 2.0647 0.6958 3.7623 2.125 5.1916 s3.1137 2.1242 5.1512 2.1242 l6.9792 0 c1.2098 0 2.25 0.4432 3.091 1.3174 c0.85492 0.8558 1.2938 1.8916 1.2938 3.0674 c0 0.5944 -0.11016 1.1661 -0.32606 1.7002 c-0.22465 0.54808 -0.54456 1.0227 -0.95368 1.4135 c-0.40212 0.38461 -0.87504 0.68884 -1.4056 0.90388 c-0.26574 0.1084 -0.54196 0.19058 -0.82604 0.24476 l0 2.9686 c1.6522 -0.17394 3.0578 -0.85924 4.278 -2.0787 z"></path></g></svg>